<svg width="373" height="30" viewBox="0 0 373 30" fill="none" xmlns="http://www.w3.org/2000/svg">
<path d="M6.21094 29H0.78125L10.7422 0.71875H16.9922L26.9922 29H21.5625L19.1992 22.0078H8.55469L6.21094 29ZM9.92188 17.9062H17.832L13.9844 6.5H13.75L9.92188 17.9062ZM35.4297 0.71875V29H30.3516V0.71875H35.4297ZM52.1484 0.71875V29H50.8594V0.71875H52.1484ZM60.5078 14.9766V29H59.2188V7.78906H60.4688V11.1484H60.625C61.6211 8.94141 63.9844 7.51562 66.9531 7.51562C71.2109 7.51562 74.1797 10.4453 74.1797 14.8594V29H72.8906V14.8984C72.9102 11.2266 70.4297 8.72656 66.7969 8.72656C63.1445 8.72656 60.5078 11.2852 60.5078 14.9766ZM87.6562 7.78906V8.96094H83.2031V24.2734C83.2031 26.793 85 28.1211 86.9922 28.1406C87.3242 28.1211 87.9297 28.1016 88.2812 28.1016V29.3125C87.9883 29.3516 87.6562 29.3711 86.9531 29.3516C84.3164 29.3711 81.9336 27.5156 81.9531 24.3906V8.96094H78.8281V7.78906H81.9531V2.71094H83.2031V7.78906H87.6562ZM101.289 29.4297C95.625 29.4492 91.9531 24.7422 91.9531 18.4531C91.9531 12.1836 95.7227 7.45703 100.859 7.47656C105.723 7.45703 109.609 11.7539 109.609 17.5938V18.5703H93.2031C93.2617 23.9609 96.2109 28.2383 101.289 28.2188C104.98 28.2383 106.953 25.9141 107.656 24.5469H109.023C108.164 26.8711 105.449 29.4492 101.289 29.4297ZM93.2227 17.3594H108.32C108.34 12.5156 105.039 8.66797 100.859 8.6875C96.7773 8.66797 93.5156 12.418 93.2227 17.3594ZM114.805 29V7.78906H116.055V11.1484H116.211C117.148 8.94141 119.551 7.49609 122.422 7.51562C122.676 7.49609 122.812 7.49609 123.047 7.51562V8.76562C122.832 8.76562 122.695 8.74609 122.383 8.76562C118.73 8.74609 116.094 11.3047 116.094 14.8984V29H114.805ZM142.617 7.78906L135 29H133.438L125.859 7.78906H127.188L134.18 27.3984H134.297L141.25 7.78906H142.617ZM147.422 29V7.78906H148.672V29H147.422ZM146.953 2.86719C146.953 2.28125 147.441 1.79297 148.047 1.77344C148.672 1.79297 149.18 2.28125 149.18 2.86719C149.18 3.47266 148.672 3.98047 148.047 3.96094C147.441 3.98047 146.953 3.47266 146.953 2.86719ZM163.32 29.4297C157.656 29.4492 153.984 24.7422 153.984 18.4531C153.984 12.1836 157.754 7.45703 162.891 7.47656C167.754 7.45703 171.641 11.7539 171.641 17.5938V18.5703H155.234C155.293 23.9609 158.242 28.2383 163.32 28.2188C167.012 28.2383 168.984 25.9141 169.688 24.5469H171.055C170.195 26.8711 167.48 29.4492 163.32 29.4297ZM155.254 17.3594H170.352C170.371 12.5156 167.07 8.66797 162.891 8.6875C158.809 8.66797 155.547 12.418 155.254 17.3594ZM181.406 29L175.117 7.78906H176.445L182.148 27.2031H182.266L188.008 7.78906H189.297L195.039 27.1641H195.156L200.859 7.78906H202.188L195.859 29H194.336L188.711 9.97656H188.594L182.969 29H181.406ZM231.641 7.78906C231.367 4.09766 228.555 1.51953 224.336 1.5C220.098 1.51953 217.012 4.09766 217.031 7.63281C217.012 10.543 219.141 12.3594 222.891 13.4922L226.055 14.4688C230.645 15.8555 233.32 17.9844 233.32 21.7344C233.32 26.207 229.648 29.4492 224.102 29.4688C218.809 29.4492 215.352 26.5 215.078 22.2422H216.367C216.641 25.8359 219.648 28.2188 224.102 28.2188C228.828 28.2188 232.031 25.582 232.031 21.7344C232.031 18.7266 230.02 17.0078 225.703 15.6797L222.461 14.7031C218.008 13.3164 215.742 11.0312 215.742 7.67188C215.742 3.41406 219.414 0.269531 224.336 0.289062C229.297 0.269531 232.676 3.43359 232.93 7.78906H231.641ZM239.062 29V7.78906H240.312V29H239.062ZM238.594 2.86719C238.594 2.28125 239.082 1.79297 239.688 1.77344C240.312 1.79297 240.82 2.28125 240.82 2.86719C240.82 3.47266 240.312 3.98047 239.688 3.96094C239.082 3.98047 238.594 3.47266 238.594 2.86719ZM246.836 29V7.78906H248.086V10.9531H248.242C249.023 8.86328 251.113 7.51562 253.945 7.51562C257.07 7.51562 258.945 9.15625 259.727 11.7734H259.844C260.586 9.17578 262.832 7.51562 266.016 7.51562C270.195 7.51562 272.285 10.3867 272.305 14.7422V29H271.016V14.7812C271.016 11.1094 269.355 8.72656 265.82 8.72656C262.188 8.72656 260.215 11.2656 260.195 14.8203V29H258.945V14.7031C258.926 11.168 257.305 8.72656 253.75 8.72656C250.195 8.72656 248.125 11.3047 248.125 14.8984V29H246.836ZM292.383 21.7734V7.78906H293.633V29H292.383V25.6016H292.266C291.25 27.7891 288.887 29.2734 285.898 29.2734C281.699 29.2734 278.73 26.3438 278.711 21.9297V7.78906H280V21.8906C280 25.5234 282.48 28.0234 286.094 28.0234C289.629 28.0234 292.383 25.5039 292.383 21.7734ZM301.367 0.71875V29H300.078V0.71875H301.367ZM308.047 23.2188C308.066 20.0352 309.98 17.3398 315.586 16.8906C317.148 16.7734 320.684 16.5 321.758 16.4414V13.8828C321.758 10.7188 319.473 8.66797 315.938 8.64844C312.93 8.66797 310.469 10.0547 309.922 12.5156H308.594C309.102 9.37109 312.188 7.45703 315.938 7.47656C319.98 7.45703 323.027 9.87891 323.008 13.9609V29H321.758V24.8984H321.641C320.41 27.5547 317.91 29.4492 314.648 29.4688C311.074 29.4492 308.066 27.2227 308.047 23.2188ZM309.336 23.2188C309.336 26.2852 311.66 28.2383 314.727 28.2578C318.73 28.2383 321.758 24.8984 321.758 20.1719V17.5742C320.684 17.6719 317.129 17.9453 315.938 18.0234C310.879 18.4141 309.336 20.582 309.336 23.2188ZM336.602 7.78906V8.96094H332.148V24.2734C332.148 26.793 333.945 28.1211 335.938 28.1406C336.27 28.1211 336.875 28.1016 337.227 28.1016V29.3125C336.934 29.3516 336.602 29.3711 335.898 29.3516C333.262 29.3711 330.879 27.5156 330.898 24.3906V8.96094H327.773V7.78906H330.898V2.71094H332.148V7.78906H336.602ZM349.805 29.4297C344.688 29.4492 340.898 24.7617 340.898 18.4531C340.898 12.1445 344.688 7.45703 349.805 7.47656C354.922 7.45703 358.73 12.1445 358.75 18.4531C358.73 24.7617 354.941 29.4492 349.805 29.4297ZM342.148 18.4531C342.168 23.9805 345.352 28.2383 349.805 28.2188C354.277 28.2383 357.461 23.9805 357.461 18.4531C357.461 12.9453 354.277 8.66797 349.805 8.6875C345.371 8.66797 342.168 12.9648 342.148 18.4531ZM363.906 29V7.78906H365.156V11.1484H365.312C366.25 8.94141 368.652 7.49609 371.523 7.51562C371.777 7.49609 371.914 7.49609 372.148 7.51562V8.76562C371.934 8.76562 371.797 8.74609 371.484 8.76562C367.832 8.74609 365.195 11.3047 365.195 14.8984V29H363.906Z" fill="#4A4A4A"/>
</svg>
